<mxfile host="app.diagrams.net" modified="2024-06-11T10:47:53.293Z" agent="Mozilla/5.0 (Windows NT 10.0; Win64; x64) AppleWebKit/537.36 (KHTML, like Gecko) Chrome/122.0.0.0 YaBrowser/24.4.0.0 Safari/537.36" etag="ObpwKkWWHagDwI-HEuAs" version="24.5.2" type="github">
  <diagram id="R2lEEEUBdFMjLlhIrx00" name="Page-1">
    <mxGraphModel dx="1179" dy="676" grid="1" gridSize="10" guides="1" tooltips="1" connect="1" arrows="1" fold="1" page="1" pageScale="1" pageWidth="850" pageHeight="1100" math="0" shadow="0" extFonts="Permanent Marker^https://fonts.googleapis.com/css?family=Permanent+Marker">
      <root>
        <mxCell id="0" />
        <mxCell id="1" parent="0" />
        <mxCell id="K0GeAyiJw5N1-BAhrHhz-19" value="Затраты" style="swimlane;html=1;childLayout=stackLayout;resizeParent=1;resizeParentMax=0;horizontal=0;startSize=20;horizontalStack=0;whiteSpace=wrap;" vertex="1" parent="1">
          <mxGeometry x="120" y="20" width="720" height="1120" as="geometry" />
        </mxCell>
        <mxCell id="K0GeAyiJw5N1-BAhrHhz-20" value="выработка" style="swimlane;html=1;startSize=20;horizontal=0;" vertex="1" parent="K0GeAyiJw5N1-BAhrHhz-19">
          <mxGeometry x="20" width="700" height="200" as="geometry" />
        </mxCell>
        <mxCell id="K0GeAyiJw5N1-BAhrHhz-23" value="stg.ext_finan_nats__warehouse_tariffication_v3 " style="swimlane;fontStyle=0;childLayout=stackLayout;horizontal=1;startSize=26;horizontalStack=0;resizeParent=1;resizeParentMax=0;resizeLast=0;collapsible=1;marginBottom=0;align=center;fontSize=10;" vertex="1" parent="K0GeAyiJw5N1-BAhrHhz-20">
          <mxGeometry x="60" y="20" width="250" height="146" as="geometry" />
        </mxCell>
        <mxCell id="K0GeAyiJw5N1-BAhrHhz-24" value="employee_id" style="text;strokeColor=none;fillColor=none;spacingLeft=4;spacingRight=4;overflow=hidden;rotatable=0;points=[[0,0.5],[1,0.5]];portConstraint=eastwest;fontSize=12;whiteSpace=wrap;html=1;" vertex="1" parent="K0GeAyiJw5N1-BAhrHhz-23">
          <mxGeometry y="26" width="250" height="30" as="geometry" />
        </mxCell>
        <mxCell id="K0GeAyiJw5N1-BAhrHhz-25" value="barcode" style="text;strokeColor=none;fillColor=none;spacingLeft=4;spacingRight=4;overflow=hidden;rotatable=0;points=[[0,0.5],[1,0.5]];portConstraint=eastwest;fontSize=12;whiteSpace=wrap;html=1;" vertex="1" parent="K0GeAyiJw5N1-BAhrHhz-23">
          <mxGeometry y="56" width="250" height="30" as="geometry" />
        </mxCell>
        <mxCell id="K0GeAyiJw5N1-BAhrHhz-26" value="amount" style="text;strokeColor=none;fillColor=none;spacingLeft=4;spacingRight=4;overflow=hidden;rotatable=0;points=[[0,0.5],[1,0.5]];portConstraint=eastwest;fontSize=12;whiteSpace=wrap;html=1;" vertex="1" parent="K0GeAyiJw5N1-BAhrHhz-23">
          <mxGeometry y="86" width="250" height="30" as="geometry" />
        </mxCell>
        <mxCell id="K0GeAyiJw5N1-BAhrHhz-58" value="dt" style="text;strokeColor=none;fillColor=none;spacingLeft=4;spacingRight=4;overflow=hidden;rotatable=0;points=[[0,0.5],[1,0.5]];portConstraint=eastwest;fontSize=12;whiteSpace=wrap;html=1;" vertex="1" parent="K0GeAyiJw5N1-BAhrHhz-23">
          <mxGeometry y="116" width="250" height="30" as="geometry" />
        </mxCell>
        <mxCell id="K0GeAyiJw5N1-BAhrHhz-35" value="sdb.warehouse_operations_from_tarificator" style="swimlane;fontStyle=0;childLayout=stackLayout;horizontal=1;startSize=26;horizontalStack=0;resizeParent=1;resizeParentMax=0;resizeLast=0;collapsible=1;marginBottom=0;align=center;fontSize=10;" vertex="1" parent="K0GeAyiJw5N1-BAhrHhz-20">
          <mxGeometry x="395" y="20" width="250" height="116" as="geometry" />
        </mxCell>
        <mxCell id="K0GeAyiJw5N1-BAhrHhz-36" value="employee_id" style="text;strokeColor=none;fillColor=none;spacingLeft=4;spacingRight=4;overflow=hidden;rotatable=0;points=[[0,0.5],[1,0.5]];portConstraint=eastwest;fontSize=12;whiteSpace=wrap;html=1;" vertex="1" parent="K0GeAyiJw5N1-BAhrHhz-35">
          <mxGeometry y="26" width="250" height="30" as="geometry" />
        </mxCell>
        <mxCell id="K0GeAyiJw5N1-BAhrHhz-37" value="shk_id" style="text;strokeColor=none;fillColor=none;spacingLeft=4;spacingRight=4;overflow=hidden;rotatable=0;points=[[0,0.5],[1,0.5]];portConstraint=eastwest;fontSize=12;whiteSpace=wrap;html=1;" vertex="1" parent="K0GeAyiJw5N1-BAhrHhz-35">
          <mxGeometry y="56" width="250" height="30" as="geometry" />
        </mxCell>
        <mxCell id="K0GeAyiJw5N1-BAhrHhz-38" value="amount" style="text;strokeColor=none;fillColor=none;spacingLeft=4;spacingRight=4;overflow=hidden;rotatable=0;points=[[0,0.5],[1,0.5]];portConstraint=eastwest;fontSize=12;whiteSpace=wrap;html=1;" vertex="1" parent="K0GeAyiJw5N1-BAhrHhz-35">
          <mxGeometry y="86" width="250" height="30" as="geometry" />
        </mxCell>
        <mxCell id="K0GeAyiJw5N1-BAhrHhz-39" value="" style="html=1;verticalAlign=bottom;endArrow=block;curved=0;rounded=0;" edge="1" parent="K0GeAyiJw5N1-BAhrHhz-20" source="K0GeAyiJw5N1-BAhrHhz-24" target="K0GeAyiJw5N1-BAhrHhz-36">
          <mxGeometry width="80" relative="1" as="geometry">
            <mxPoint x="310" y="60" as="sourcePoint" />
            <mxPoint x="390" y="60" as="targetPoint" />
          </mxGeometry>
        </mxCell>
        <mxCell id="K0GeAyiJw5N1-BAhrHhz-40" value="" style="html=1;verticalAlign=bottom;endArrow=block;curved=0;rounded=0;entryX=0;entryY=0.5;entryDx=0;entryDy=0;" edge="1" parent="K0GeAyiJw5N1-BAhrHhz-20" source="K0GeAyiJw5N1-BAhrHhz-25" target="K0GeAyiJw5N1-BAhrHhz-37">
          <mxGeometry width="80" relative="1" as="geometry">
            <mxPoint x="320" y="77.5" as="sourcePoint" />
            <mxPoint x="405" y="77.5" as="targetPoint" />
          </mxGeometry>
        </mxCell>
        <mxCell id="K0GeAyiJw5N1-BAhrHhz-41" value="" style="html=1;verticalAlign=bottom;endArrow=block;curved=0;rounded=0;" edge="1" parent="K0GeAyiJw5N1-BAhrHhz-20" source="K0GeAyiJw5N1-BAhrHhz-26" target="K0GeAyiJw5N1-BAhrHhz-38">
          <mxGeometry width="80" relative="1" as="geometry">
            <mxPoint x="320" y="101" as="sourcePoint" />
            <mxPoint x="405" y="101" as="targetPoint" />
          </mxGeometry>
        </mxCell>
        <mxCell id="K0GeAyiJw5N1-BAhrHhz-21" value="Списания/оприходования" style="swimlane;html=1;startSize=20;horizontal=0;" vertex="1" parent="K0GeAyiJw5N1-BAhrHhz-19">
          <mxGeometry x="20" y="200" width="700" height="190" as="geometry" />
        </mxCell>
        <mxCell id="K0GeAyiJw5N1-BAhrHhz-27" value="&#xa;  stg.kafka_geenhmvrrq__wh_writeoff" style="swimlane;fontStyle=0;childLayout=stackLayout;horizontal=1;startSize=26;horizontalStack=0;resizeParent=1;resizeParentMax=0;resizeLast=0;collapsible=1;marginBottom=0;align=center;fontSize=10;" vertex="1" parent="K0GeAyiJw5N1-BAhrHhz-21">
          <mxGeometry x="60" y="20" width="200" height="116" as="geometry" />
        </mxCell>
        <mxCell id="K0GeAyiJw5N1-BAhrHhz-28" value="shk_id" style="text;strokeColor=none;fillColor=none;spacingLeft=4;spacingRight=4;overflow=hidden;rotatable=0;points=[[0,0.5],[1,0.5]];portConstraint=eastwest;fontSize=12;whiteSpace=wrap;html=1;" vertex="1" parent="K0GeAyiJw5N1-BAhrHhz-27">
          <mxGeometry y="26" width="200" height="30" as="geometry" />
        </mxCell>
        <mxCell id="K0GeAyiJw5N1-BAhrHhz-29" value="amount" style="text;strokeColor=none;fillColor=none;spacingLeft=4;spacingRight=4;overflow=hidden;rotatable=0;points=[[0,0.5],[1,0.5]];portConstraint=eastwest;fontSize=12;whiteSpace=wrap;html=1;" vertex="1" parent="K0GeAyiJw5N1-BAhrHhz-27">
          <mxGeometry y="56" width="200" height="30" as="geometry" />
        </mxCell>
        <mxCell id="K0GeAyiJw5N1-BAhrHhz-59" value="dt" style="text;strokeColor=none;fillColor=none;spacingLeft=4;spacingRight=4;overflow=hidden;rotatable=0;points=[[0,0.5],[1,0.5]];portConstraint=eastwest;fontSize=12;whiteSpace=wrap;html=1;" vertex="1" parent="K0GeAyiJw5N1-BAhrHhz-27">
          <mxGeometry y="86" width="200" height="30" as="geometry" />
        </mxCell>
        <mxCell id="K0GeAyiJw5N1-BAhrHhz-42" value="таблица_фин_отдела_для списаний и оприходований" style="swimlane;fontStyle=0;childLayout=stackLayout;horizontal=1;startSize=26;horizontalStack=0;resizeParent=1;resizeParentMax=0;resizeLast=0;collapsible=1;marginBottom=0;align=center;fontSize=10;" vertex="1" parent="K0GeAyiJw5N1-BAhrHhz-21">
          <mxGeometry x="380" y="20" width="270" height="146" as="geometry" />
        </mxCell>
        <mxCell id="K0GeAyiJw5N1-BAhrHhz-43" value="shk_id" style="text;strokeColor=none;fillColor=none;spacingLeft=4;spacingRight=4;overflow=hidden;rotatable=0;points=[[0,0.5],[1,0.5]];portConstraint=eastwest;fontSize=12;whiteSpace=wrap;html=1;" vertex="1" parent="K0GeAyiJw5N1-BAhrHhz-42">
          <mxGeometry y="26" width="270" height="30" as="geometry" />
        </mxCell>
        <mxCell id="K0GeAyiJw5N1-BAhrHhz-46" value="amount" style="text;strokeColor=none;fillColor=none;spacingLeft=4;spacingRight=4;overflow=hidden;rotatable=0;points=[[0,0.5],[1,0.5]];portConstraint=eastwest;fontSize=12;whiteSpace=wrap;html=1;" vertex="1" parent="K0GeAyiJw5N1-BAhrHhz-42">
          <mxGeometry y="56" width="270" height="30" as="geometry" />
        </mxCell>
        <mxCell id="K0GeAyiJw5N1-BAhrHhz-66" value="wh_id" style="text;strokeColor=none;fillColor=none;spacingLeft=4;spacingRight=4;overflow=hidden;rotatable=0;points=[[0,0.5],[1,0.5]];portConstraint=eastwest;fontSize=12;whiteSpace=wrap;html=1;" vertex="1" parent="K0GeAyiJw5N1-BAhrHhz-42">
          <mxGeometry y="86" width="270" height="30" as="geometry" />
        </mxCell>
        <mxCell id="K0GeAyiJw5N1-BAhrHhz-98" value="dt" style="text;strokeColor=none;fillColor=none;spacingLeft=4;spacingRight=4;overflow=hidden;rotatable=0;points=[[0,0.5],[1,0.5]];portConstraint=eastwest;fontSize=12;whiteSpace=wrap;html=1;" vertex="1" parent="K0GeAyiJw5N1-BAhrHhz-42">
          <mxGeometry y="116" width="270" height="30" as="geometry" />
        </mxCell>
        <mxCell id="K0GeAyiJw5N1-BAhrHhz-50" value="" style="html=1;verticalAlign=bottom;endArrow=block;curved=0;rounded=0;entryX=0;entryY=0.5;entryDx=0;entryDy=0;" edge="1" parent="K0GeAyiJw5N1-BAhrHhz-21" source="K0GeAyiJw5N1-BAhrHhz-28" target="K0GeAyiJw5N1-BAhrHhz-43">
          <mxGeometry width="80" relative="1" as="geometry">
            <mxPoint x="270" y="62.5" as="sourcePoint" />
            <mxPoint x="355" y="62.5" as="targetPoint" />
          </mxGeometry>
        </mxCell>
        <mxCell id="K0GeAyiJw5N1-BAhrHhz-51" value="" style="html=1;verticalAlign=bottom;endArrow=block;curved=0;rounded=0;exitX=0.998;exitY=0.227;exitDx=0;exitDy=0;exitPerimeter=0;entryX=0;entryY=0.5;entryDx=0;entryDy=0;" edge="1" parent="K0GeAyiJw5N1-BAhrHhz-21" source="K0GeAyiJw5N1-BAhrHhz-29" target="K0GeAyiJw5N1-BAhrHhz-46">
          <mxGeometry width="80" relative="1" as="geometry">
            <mxPoint x="270" y="71" as="sourcePoint" />
            <mxPoint x="410" y="83" as="targetPoint" />
          </mxGeometry>
        </mxCell>
        <mxCell id="K0GeAyiJw5N1-BAhrHhz-22" value="Админ штрафы" style="swimlane;html=1;startSize=20;horizontal=0;" vertex="1" parent="K0GeAyiJw5N1-BAhrHhz-19">
          <mxGeometry x="20" y="390" width="700" height="190" as="geometry" />
        </mxCell>
        <mxCell id="K0GeAyiJw5N1-BAhrHhz-31" value="&#xa;  stg.finan_nats__warehouse_penalties&#xa;" style="swimlane;fontStyle=0;childLayout=stackLayout;horizontal=1;startSize=26;horizontalStack=0;resizeParent=1;resizeParentMax=0;resizeLast=0;collapsible=1;marginBottom=0;align=center;fontSize=10;" vertex="1" parent="K0GeAyiJw5N1-BAhrHhz-22">
          <mxGeometry x="60" y="30" width="200" height="116" as="geometry" />
        </mxCell>
        <mxCell id="K0GeAyiJw5N1-BAhrHhz-32" value="shk_id" style="text;strokeColor=none;fillColor=none;spacingLeft=4;spacingRight=4;overflow=hidden;rotatable=0;points=[[0,0.5],[1,0.5]];portConstraint=eastwest;fontSize=12;whiteSpace=wrap;html=1;" vertex="1" parent="K0GeAyiJw5N1-BAhrHhz-31">
          <mxGeometry y="26" width="200" height="30" as="geometry" />
        </mxCell>
        <mxCell id="K0GeAyiJw5N1-BAhrHhz-33" value="amount" style="text;strokeColor=none;fillColor=none;spacingLeft=4;spacingRight=4;overflow=hidden;rotatable=0;points=[[0,0.5],[1,0.5]];portConstraint=eastwest;fontSize=12;whiteSpace=wrap;html=1;" vertex="1" parent="K0GeAyiJw5N1-BAhrHhz-31">
          <mxGeometry y="56" width="200" height="30" as="geometry" />
        </mxCell>
        <mxCell id="K0GeAyiJw5N1-BAhrHhz-60" value="dt" style="text;strokeColor=none;fillColor=none;spacingLeft=4;spacingRight=4;overflow=hidden;rotatable=0;points=[[0,0.5],[1,0.5]];portConstraint=eastwest;fontSize=12;whiteSpace=wrap;html=1;" vertex="1" parent="K0GeAyiJw5N1-BAhrHhz-31">
          <mxGeometry y="86" width="200" height="30" as="geometry" />
        </mxCell>
        <mxCell id="K0GeAyiJw5N1-BAhrHhz-47" value="sdb.osipov_writeoff" style="swimlane;fontStyle=0;childLayout=stackLayout;horizontal=1;startSize=26;horizontalStack=0;resizeParent=1;resizeParentMax=0;resizeLast=0;collapsible=1;marginBottom=0;align=center;fontSize=10;" vertex="1" parent="K0GeAyiJw5N1-BAhrHhz-22">
          <mxGeometry x="375" y="30" width="270" height="146" as="geometry" />
        </mxCell>
        <mxCell id="K0GeAyiJw5N1-BAhrHhz-48" value="shk_id" style="text;strokeColor=none;fillColor=none;spacingLeft=4;spacingRight=4;overflow=hidden;rotatable=0;points=[[0,0.5],[1,0.5]];portConstraint=eastwest;fontSize=12;whiteSpace=wrap;html=1;" vertex="1" parent="K0GeAyiJw5N1-BAhrHhz-47">
          <mxGeometry y="26" width="270" height="30" as="geometry" />
        </mxCell>
        <mxCell id="K0GeAyiJw5N1-BAhrHhz-49" value="amount" style="text;strokeColor=none;fillColor=none;spacingLeft=4;spacingRight=4;overflow=hidden;rotatable=0;points=[[0,0.5],[1,0.5]];portConstraint=eastwest;fontSize=12;whiteSpace=wrap;html=1;" vertex="1" parent="K0GeAyiJw5N1-BAhrHhz-47">
          <mxGeometry y="56" width="270" height="30" as="geometry" />
        </mxCell>
        <mxCell id="K0GeAyiJw5N1-BAhrHhz-68" value="wh_id" style="text;strokeColor=none;fillColor=none;spacingLeft=4;spacingRight=4;overflow=hidden;rotatable=0;points=[[0,0.5],[1,0.5]];portConstraint=eastwest;fontSize=12;whiteSpace=wrap;html=1;" vertex="1" parent="K0GeAyiJw5N1-BAhrHhz-47">
          <mxGeometry y="86" width="270" height="30" as="geometry" />
        </mxCell>
        <mxCell id="K0GeAyiJw5N1-BAhrHhz-97" value="dt" style="text;strokeColor=none;fillColor=none;spacingLeft=4;spacingRight=4;overflow=hidden;rotatable=0;points=[[0,0.5],[1,0.5]];portConstraint=eastwest;fontSize=12;whiteSpace=wrap;html=1;" vertex="1" parent="K0GeAyiJw5N1-BAhrHhz-47">
          <mxGeometry y="116" width="270" height="30" as="geometry" />
        </mxCell>
        <mxCell id="K0GeAyiJw5N1-BAhrHhz-52" value="" style="html=1;verticalAlign=bottom;endArrow=block;curved=0;rounded=0;" edge="1" parent="K0GeAyiJw5N1-BAhrHhz-22" target="K0GeAyiJw5N1-BAhrHhz-48">
          <mxGeometry width="80" relative="1" as="geometry">
            <mxPoint x="260" y="72.5" as="sourcePoint" />
            <mxPoint x="370" y="73" as="targetPoint" />
          </mxGeometry>
        </mxCell>
        <mxCell id="K0GeAyiJw5N1-BAhrHhz-53" value="" style="html=1;verticalAlign=bottom;endArrow=block;curved=0;rounded=0;exitX=1;exitY=0.5;exitDx=0;exitDy=0;entryX=0;entryY=0.5;entryDx=0;entryDy=0;" edge="1" parent="K0GeAyiJw5N1-BAhrHhz-22" source="K0GeAyiJw5N1-BAhrHhz-33" target="K0GeAyiJw5N1-BAhrHhz-49">
          <mxGeometry width="80" relative="1" as="geometry">
            <mxPoint x="270" y="-97" as="sourcePoint" />
            <mxPoint x="390" y="-89" as="targetPoint" />
          </mxGeometry>
        </mxCell>
        <mxCell id="K0GeAyiJw5N1-BAhrHhz-67" value="Фикс. выплаты" style="swimlane;html=1;startSize=20;horizontal=0;" vertex="1" parent="K0GeAyiJw5N1-BAhrHhz-19">
          <mxGeometry x="20" y="580" width="700" height="190" as="geometry" />
        </mxCell>
        <mxCell id="K0GeAyiJw5N1-BAhrHhz-99" value="Баланс по данным склада" style="swimlane;html=1;startSize=20;horizontal=0;" vertex="1" parent="K0GeAyiJw5N1-BAhrHhz-19">
          <mxGeometry x="20" y="770" width="700" height="350" as="geometry" />
        </mxCell>
        <mxCell id="K0GeAyiJw5N1-BAhrHhz-54" value="Витрина" style="swimlane;fontStyle=0;childLayout=stackLayout;horizontal=1;startSize=26;horizontalStack=0;resizeParent=1;resizeParentMax=0;resizeLast=0;collapsible=1;marginBottom=0;align=center;fontSize=14;" vertex="1" parent="1">
          <mxGeometry x="950" y="20" width="160" height="270" as="geometry" />
        </mxCell>
        <mxCell id="K0GeAyiJw5N1-BAhrHhz-55" value="dt" style="text;strokeColor=none;fillColor=none;spacingLeft=4;spacingRight=4;overflow=hidden;rotatable=0;points=[[0,0.5],[1,0.5]];portConstraint=eastwest;fontSize=12;whiteSpace=wrap;html=1;" vertex="1" parent="K0GeAyiJw5N1-BAhrHhz-54">
          <mxGeometry y="26" width="160" height="30" as="geometry" />
        </mxCell>
        <mxCell id="K0GeAyiJw5N1-BAhrHhz-56" value="Employee_id" style="text;strokeColor=none;fillColor=none;spacingLeft=4;spacingRight=4;overflow=hidden;rotatable=0;points=[[0,0.5],[1,0.5]];portConstraint=eastwest;fontSize=12;whiteSpace=wrap;html=1;" vertex="1" parent="K0GeAyiJw5N1-BAhrHhz-54">
          <mxGeometry y="56" width="160" height="30" as="geometry" />
        </mxCell>
        <mxCell id="K0GeAyiJw5N1-BAhrHhz-57" value="sh_id" style="text;strokeColor=none;fillColor=none;spacingLeft=4;spacingRight=4;overflow=hidden;rotatable=0;points=[[0,0.5],[1,0.5]];portConstraint=eastwest;fontSize=12;whiteSpace=wrap;html=1;" vertex="1" parent="K0GeAyiJw5N1-BAhrHhz-54">
          <mxGeometry y="86" width="160" height="34" as="geometry" />
        </mxCell>
        <mxCell id="K0GeAyiJw5N1-BAhrHhz-63" value="Выработка" style="text;strokeColor=none;fillColor=none;spacingLeft=4;spacingRight=4;overflow=hidden;rotatable=0;points=[[0,0.5],[1,0.5]];portConstraint=eastwest;fontSize=12;whiteSpace=wrap;html=1;" vertex="1" parent="K0GeAyiJw5N1-BAhrHhz-54">
          <mxGeometry y="120" width="160" height="34" as="geometry" />
        </mxCell>
        <mxCell id="K0GeAyiJw5N1-BAhrHhz-64" value="Списания/оприходования" style="text;strokeColor=none;fillColor=none;spacingLeft=4;spacingRight=4;overflow=hidden;rotatable=0;points=[[0,0.5],[1,0.5]];portConstraint=eastwest;fontSize=12;whiteSpace=wrap;html=1;" vertex="1" parent="K0GeAyiJw5N1-BAhrHhz-54">
          <mxGeometry y="154" width="160" height="34" as="geometry" />
        </mxCell>
        <mxCell id="K0GeAyiJw5N1-BAhrHhz-86" value="Админ штрафы" style="text;strokeColor=none;fillColor=none;spacingLeft=4;spacingRight=4;overflow=hidden;rotatable=0;points=[[0,0.5],[1,0.5]];portConstraint=eastwest;fontSize=12;whiteSpace=wrap;html=1;" vertex="1" parent="K0GeAyiJw5N1-BAhrHhz-54">
          <mxGeometry y="188" width="160" height="34" as="geometry" />
        </mxCell>
        <mxCell id="K0GeAyiJw5N1-BAhrHhz-74" value="Фикс. Выплаты" style="text;strokeColor=none;fillColor=none;spacingLeft=4;spacingRight=4;overflow=hidden;rotatable=0;points=[[0,0.5],[1,0.5]];portConstraint=eastwest;fontSize=12;whiteSpace=wrap;html=1;" vertex="1" parent="K0GeAyiJw5N1-BAhrHhz-54">
          <mxGeometry y="222" width="160" height="34" as="geometry" />
        </mxCell>
        <mxCell id="K0GeAyiJw5N1-BAhrHhz-73" style="text;strokeColor=none;fillColor=none;spacingLeft=4;spacingRight=4;overflow=hidden;rotatable=0;points=[[0,0.5],[1,0.5]];portConstraint=eastwest;fontSize=12;whiteSpace=wrap;html=1;" vertex="1" parent="K0GeAyiJw5N1-BAhrHhz-54">
          <mxGeometry y="256" width="160" height="14" as="geometry" />
        </mxCell>
        <mxCell id="K0GeAyiJw5N1-BAhrHhz-69" value="stg.kafka_geenhmvrrq__wh_employee_calc" style="swimlane;fontStyle=0;childLayout=stackLayout;horizontal=1;startSize=26;horizontalStack=0;resizeParent=1;resizeParentMax=0;resizeLast=0;collapsible=1;marginBottom=0;align=center;fontSize=10;" vertex="1" parent="1">
          <mxGeometry x="200" y="610" width="220" height="116" as="geometry" />
        </mxCell>
        <mxCell id="K0GeAyiJw5N1-BAhrHhz-70" value="shk_id" style="text;strokeColor=none;fillColor=none;spacingLeft=4;spacingRight=4;overflow=hidden;rotatable=0;points=[[0,0.5],[1,0.5]];portConstraint=eastwest;fontSize=12;whiteSpace=wrap;html=1;" vertex="1" parent="K0GeAyiJw5N1-BAhrHhz-69">
          <mxGeometry y="26" width="220" height="30" as="geometry" />
        </mxCell>
        <mxCell id="K0GeAyiJw5N1-BAhrHhz-71" value="amount" style="text;strokeColor=none;fillColor=none;spacingLeft=4;spacingRight=4;overflow=hidden;rotatable=0;points=[[0,0.5],[1,0.5]];portConstraint=eastwest;fontSize=12;whiteSpace=wrap;html=1;" vertex="1" parent="K0GeAyiJw5N1-BAhrHhz-69">
          <mxGeometry y="56" width="220" height="30" as="geometry" />
        </mxCell>
        <mxCell id="K0GeAyiJw5N1-BAhrHhz-72" value="dt" style="text;strokeColor=none;fillColor=none;spacingLeft=4;spacingRight=4;overflow=hidden;rotatable=0;points=[[0,0.5],[1,0.5]];portConstraint=eastwest;fontSize=12;whiteSpace=wrap;html=1;" vertex="1" parent="K0GeAyiJw5N1-BAhrHhz-69">
          <mxGeometry y="86" width="220" height="30" as="geometry" />
        </mxCell>
        <mxCell id="K0GeAyiJw5N1-BAhrHhz-75" value="Баланс" style="swimlane;fontStyle=0;childLayout=stackLayout;horizontal=1;startSize=26;horizontalStack=0;resizeParent=1;resizeParentMax=0;resizeLast=0;collapsible=1;marginBottom=0;align=center;fontSize=14;" vertex="1" parent="1">
          <mxGeometry x="960" y="400" width="160" height="140" as="geometry" />
        </mxCell>
        <mxCell id="K0GeAyiJw5N1-BAhrHhz-77" value="dt" style="text;strokeColor=none;fillColor=none;spacingLeft=4;spacingRight=4;overflow=hidden;rotatable=0;points=[[0,0.5],[1,0.5]];portConstraint=eastwest;fontSize=12;whiteSpace=wrap;html=1;" vertex="1" parent="K0GeAyiJw5N1-BAhrHhz-75">
          <mxGeometry y="26" width="160" height="30" as="geometry" />
        </mxCell>
        <mxCell id="K0GeAyiJw5N1-BAhrHhz-92" value="employee_id" style="text;strokeColor=none;fillColor=none;spacingLeft=4;spacingRight=4;overflow=hidden;rotatable=0;points=[[0,0.5],[1,0.5]];portConstraint=eastwest;fontSize=12;whiteSpace=wrap;html=1;" vertex="1" parent="K0GeAyiJw5N1-BAhrHhz-75">
          <mxGeometry y="56" width="160" height="30" as="geometry" />
        </mxCell>
        <mxCell id="K0GeAyiJw5N1-BAhrHhz-83" value="Баланс на определенный день" style="text;strokeColor=none;fillColor=none;spacingLeft=4;spacingRight=4;overflow=hidden;rotatable=0;points=[[0,0.5],[1,0.5]];portConstraint=eastwest;fontSize=12;whiteSpace=wrap;html=1;" vertex="1" parent="K0GeAyiJw5N1-BAhrHhz-75">
          <mxGeometry y="86" width="160" height="54" as="geometry" />
        </mxCell>
        <mxCell id="K0GeAyiJw5N1-BAhrHhz-84" value="" style="html=1;verticalAlign=bottom;endArrow=block;curved=0;rounded=0;exitX=1;exitY=0.5;exitDx=0;exitDy=0;" edge="1" parent="1" source="K0GeAyiJw5N1-BAhrHhz-38" target="K0GeAyiJw5N1-BAhrHhz-63">
          <mxGeometry width="80" relative="1" as="geometry">
            <mxPoint x="460" y="151" as="sourcePoint" />
            <mxPoint x="545" y="151" as="targetPoint" />
          </mxGeometry>
        </mxCell>
        <mxCell id="K0GeAyiJw5N1-BAhrHhz-85" value="" style="html=1;verticalAlign=bottom;endArrow=block;curved=0;rounded=0;entryX=0;entryY=0.5;entryDx=0;entryDy=0;exitX=1;exitY=0.5;exitDx=0;exitDy=0;" edge="1" parent="1" source="K0GeAyiJw5N1-BAhrHhz-46" target="K0GeAyiJw5N1-BAhrHhz-64">
          <mxGeometry width="80" relative="1" as="geometry">
            <mxPoint x="795" y="151" as="sourcePoint" />
            <mxPoint x="1160" y="164" as="targetPoint" />
          </mxGeometry>
        </mxCell>
        <mxCell id="K0GeAyiJw5N1-BAhrHhz-87" value="" style="html=1;verticalAlign=bottom;endArrow=block;curved=0;rounded=0;entryX=0;entryY=0.5;entryDx=0;entryDy=0;exitX=1;exitY=0.5;exitDx=0;exitDy=0;" edge="1" parent="1" source="K0GeAyiJw5N1-BAhrHhz-49" target="K0GeAyiJw5N1-BAhrHhz-86">
          <mxGeometry width="80" relative="1" as="geometry">
            <mxPoint x="800" y="321" as="sourcePoint" />
            <mxPoint x="1160" y="201" as="targetPoint" />
          </mxGeometry>
        </mxCell>
        <mxCell id="K0GeAyiJw5N1-BAhrHhz-88" value="sdb.osipov_fix" style="swimlane;fontStyle=0;childLayout=stackLayout;horizontal=1;startSize=26;horizontalStack=0;resizeParent=1;resizeParentMax=0;resizeLast=0;collapsible=1;marginBottom=0;align=center;fontSize=10;" vertex="1" parent="1">
          <mxGeometry x="520" y="610" width="270" height="146" as="geometry" />
        </mxCell>
        <mxCell id="K0GeAyiJw5N1-BAhrHhz-89" value="shk_id" style="text;strokeColor=none;fillColor=none;spacingLeft=4;spacingRight=4;overflow=hidden;rotatable=0;points=[[0,0.5],[1,0.5]];portConstraint=eastwest;fontSize=12;whiteSpace=wrap;html=1;" vertex="1" parent="K0GeAyiJw5N1-BAhrHhz-88">
          <mxGeometry y="26" width="270" height="30" as="geometry" />
        </mxCell>
        <mxCell id="K0GeAyiJw5N1-BAhrHhz-90" value="amount" style="text;strokeColor=none;fillColor=none;spacingLeft=4;spacingRight=4;overflow=hidden;rotatable=0;points=[[0,0.5],[1,0.5]];portConstraint=eastwest;fontSize=12;whiteSpace=wrap;html=1;" vertex="1" parent="K0GeAyiJw5N1-BAhrHhz-88">
          <mxGeometry y="56" width="270" height="30" as="geometry" />
        </mxCell>
        <mxCell id="K0GeAyiJw5N1-BAhrHhz-91" value="wh_id" style="text;strokeColor=none;fillColor=none;spacingLeft=4;spacingRight=4;overflow=hidden;rotatable=0;points=[[0,0.5],[1,0.5]];portConstraint=eastwest;fontSize=12;whiteSpace=wrap;html=1;" vertex="1" parent="K0GeAyiJw5N1-BAhrHhz-88">
          <mxGeometry y="86" width="270" height="30" as="geometry" />
        </mxCell>
        <mxCell id="K0GeAyiJw5N1-BAhrHhz-96" value="dt" style="text;strokeColor=none;fillColor=none;spacingLeft=4;spacingRight=4;overflow=hidden;rotatable=0;points=[[0,0.5],[1,0.5]];portConstraint=eastwest;fontSize=12;whiteSpace=wrap;html=1;" vertex="1" parent="K0GeAyiJw5N1-BAhrHhz-88">
          <mxGeometry y="116" width="270" height="30" as="geometry" />
        </mxCell>
        <mxCell id="K0GeAyiJw5N1-BAhrHhz-93" value="" style="html=1;verticalAlign=bottom;endArrow=block;curved=0;rounded=0;entryX=0;entryY=0.5;entryDx=0;entryDy=0;exitX=1.007;exitY=0.231;exitDx=0;exitDy=0;exitPerimeter=0;" edge="1" parent="1" source="K0GeAyiJw5N1-BAhrHhz-90" target="K0GeAyiJw5N1-BAhrHhz-74">
          <mxGeometry width="80" relative="1" as="geometry">
            <mxPoint x="795" y="521" as="sourcePoint" />
            <mxPoint x="1160" y="235" as="targetPoint" />
          </mxGeometry>
        </mxCell>
        <mxCell id="K0GeAyiJw5N1-BAhrHhz-94" value="" style="html=1;verticalAlign=bottom;endArrow=block;curved=0;rounded=0;entryX=0;entryY=0.5;entryDx=0;entryDy=0;" edge="1" parent="1" source="K0GeAyiJw5N1-BAhrHhz-70" target="K0GeAyiJw5N1-BAhrHhz-89">
          <mxGeometry width="80" relative="1" as="geometry">
            <mxPoint x="410" y="521" as="sourcePoint" />
            <mxPoint x="525" y="521" as="targetPoint" />
            <Array as="points" />
          </mxGeometry>
        </mxCell>
        <mxCell id="K0GeAyiJw5N1-BAhrHhz-95" value="" style="html=1;verticalAlign=bottom;endArrow=block;curved=0;rounded=0;" edge="1" parent="1" source="K0GeAyiJw5N1-BAhrHhz-71">
          <mxGeometry width="80" relative="1" as="geometry">
            <mxPoint x="430" y="661" as="sourcePoint" />
            <mxPoint x="518" y="681" as="targetPoint" />
            <Array as="points" />
          </mxGeometry>
        </mxCell>
        <mxCell id="K0GeAyiJw5N1-BAhrHhz-100" value="stg.kafka_geenhmvrrq__wh_employee_calc" style="swimlane;fontStyle=0;childLayout=stackLayout;horizontal=1;startSize=26;horizontalStack=0;resizeParent=1;resizeParentMax=0;resizeLast=0;collapsible=1;marginBottom=0;align=center;fontSize=10;" vertex="1" parent="1">
          <mxGeometry x="200" y="820" width="220" height="260" as="geometry" />
        </mxCell>
        <mxCell id="K0GeAyiJw5N1-BAhrHhz-101" value="&lt;div style=&quot;background-color:#ffffff;padding:0px 0px 0px 2px;&quot;&gt;&lt;div style=&quot;font-family: Consolas; font-size: 10pt; white-space: pre;&quot;&gt;&lt;p style=&quot;margin:0;&quot;&gt;employee_id &lt;/p&gt;&lt;p style=&quot;margin:0;&quot;&gt;&lt;br&gt;&lt;/p&gt;&lt;/div&gt;&lt;/div&gt;" style="text;strokeColor=none;fillColor=none;spacingLeft=4;spacingRight=4;overflow=hidden;rotatable=0;points=[[0,0.5],[1,0.5]];portConstraint=eastwest;fontSize=12;whiteSpace=wrap;html=1;" vertex="1" parent="K0GeAyiJw5N1-BAhrHhz-100">
          <mxGeometry y="26" width="220" height="30" as="geometry" />
        </mxCell>
        <mxCell id="K0GeAyiJw5N1-BAhrHhz-102" value="&lt;span style=&quot;font-family: Consolas; font-size: 13.3333px; white-space: pre; background-color: rgb(255, 255, 255);&quot;&gt;PAY_DT&lt;/span&gt;" style="text;strokeColor=none;fillColor=none;spacingLeft=4;spacingRight=4;overflow=hidden;rotatable=0;points=[[0,0.5],[1,0.5]];portConstraint=eastwest;fontSize=12;whiteSpace=wrap;html=1;" vertex="1" parent="K0GeAyiJw5N1-BAhrHhz-100">
          <mxGeometry y="56" width="220" height="30" as="geometry" />
        </mxCell>
        <mxCell id="K0GeAyiJw5N1-BAhrHhz-103" value="&lt;span style=&quot;font-family: Consolas; font-size: 13.3333px; white-space: pre; background-color: rgb(255, 255, 255);&quot;&gt;PAY_AMOUNT_810&lt;/span&gt;" style="text;strokeColor=none;fillColor=none;spacingLeft=4;spacingRight=4;overflow=hidden;rotatable=0;points=[[0,0.5],[1,0.5]];portConstraint=eastwest;fontSize=12;whiteSpace=wrap;html=1;" vertex="1" parent="K0GeAyiJw5N1-BAhrHhz-100">
          <mxGeometry y="86" width="220" height="30" as="geometry" />
        </mxCell>
        <mxCell id="K0GeAyiJw5N1-BAhrHhz-104" value="&lt;span style=&quot;font-family: Consolas; font-size: 13.3333px; white-space: pre; background-color: rgb(255, 255, 255);&quot;&gt;TRF_AMOUNT_810&lt;/span&gt;" style="text;strokeColor=none;fillColor=none;spacingLeft=4;spacingRight=4;overflow=hidden;rotatable=0;points=[[0,0.5],[1,0.5]];portConstraint=eastwest;fontSize=12;whiteSpace=wrap;html=1;" vertex="1" parent="K0GeAyiJw5N1-BAhrHhz-100">
          <mxGeometry y="116" width="220" height="30" as="geometry" />
        </mxCell>
        <mxCell id="K0GeAyiJw5N1-BAhrHhz-105" value="&lt;span style=&quot;color: rgb(0, 0, 0); font-family: Consolas; font-size: 13.3333px; font-style: normal; font-variant-ligatures: normal; font-variant-caps: normal; font-weight: 400; letter-spacing: normal; orphans: 2; text-align: left; text-indent: 0px; text-transform: none; widows: 2; word-spacing: 0px; -webkit-text-stroke-width: 0px; white-space: pre; background-color: rgb(255, 255, 255); text-decoration-thickness: initial; text-decoration-style: initial; text-decoration-color: initial; display: inline !important; float: none;&quot;&gt;WRITEOFF_AMOUNT_810&lt;/span&gt;" style="text;strokeColor=none;fillColor=none;spacingLeft=4;spacingRight=4;overflow=hidden;rotatable=0;points=[[0,0.5],[1,0.5]];portConstraint=eastwest;fontSize=12;whiteSpace=wrap;html=1;" vertex="1" parent="K0GeAyiJw5N1-BAhrHhz-100">
          <mxGeometry y="146" width="220" height="34" as="geometry" />
        </mxCell>
        <mxCell id="K0GeAyiJw5N1-BAhrHhz-108" value="&lt;span style=&quot;font-family: Consolas; font-size: 13.3333px; white-space: pre; background-color: rgb(255, 255, 255);&quot;&gt;DEDUCTION_AMOUNT_810&lt;/span&gt;" style="text;strokeColor=none;fillColor=none;spacingLeft=4;spacingRight=4;overflow=hidden;rotatable=0;points=[[0,0.5],[1,0.5]];portConstraint=eastwest;fontSize=12;whiteSpace=wrap;html=1;" vertex="1" parent="K0GeAyiJw5N1-BAhrHhz-100">
          <mxGeometry y="180" width="220" height="32" as="geometry" />
        </mxCell>
        <mxCell id="K0GeAyiJw5N1-BAhrHhz-109" value="&lt;span style=&quot;font-family: Consolas; font-size: 13.3333px; white-space: pre; background-color: rgb(255, 255, 255);&quot;&gt;TRF_TRANSFERED_CREDIT_810&lt;/span&gt;" style="text;strokeColor=none;fillColor=none;spacingLeft=4;spacingRight=4;overflow=hidden;rotatable=0;points=[[0,0.5],[1,0.5]];portConstraint=eastwest;fontSize=12;whiteSpace=wrap;html=1;" vertex="1" parent="K0GeAyiJw5N1-BAhrHhz-100">
          <mxGeometry y="212" width="220" height="16" as="geometry" />
        </mxCell>
        <mxCell id="K0GeAyiJw5N1-BAhrHhz-107" style="text;strokeColor=none;fillColor=none;spacingLeft=4;spacingRight=4;overflow=hidden;rotatable=0;points=[[0,0.5],[1,0.5]];portConstraint=eastwest;fontSize=12;whiteSpace=wrap;html=1;" vertex="1" parent="K0GeAyiJw5N1-BAhrHhz-100">
          <mxGeometry y="228" width="220" height="16" as="geometry" />
        </mxCell>
        <mxCell id="K0GeAyiJw5N1-BAhrHhz-106" style="text;strokeColor=none;fillColor=none;spacingLeft=4;spacingRight=4;overflow=hidden;rotatable=0;points=[[0,0.5],[1,0.5]];portConstraint=eastwest;fontSize=12;whiteSpace=wrap;html=1;" vertex="1" parent="K0GeAyiJw5N1-BAhrHhz-100">
          <mxGeometry y="244" width="220" height="16" as="geometry" />
        </mxCell>
      </root>
    </mxGraphModel>
  </diagram>
</mxfile>
